<svg xmlns="http://www.w3.org/2000/svg" xmlns:xlink="http://www.w3.org/1999/xlink" width="46" height="55.556" viewBox="0 0 46 55.556">
  <defs>
    <clipPath id="clip-path">
      <rect id="Rectangle_512" data-name="Rectangle 512" width="46" height="55.556" transform="translate(0 0)" fill="none"/>
    </clipPath>
  </defs>
  <g id="Group_1232" data-name="Group 1232" transform="translate(0 -0.002)">
    <g id="Group_1231" data-name="Group 1231" transform="translate(0 0.002)" clip-path="url(#clip-path)">
      <path id="Path_1607" data-name="Path 1607" d="M13.579,701.538l-.124-2.812-.022-.507H25.126v.487a10.676,10.676,0,0,0,21.352,0v-.487H58.172l-.022.507-.124,2.812-.015.351-.338.1-5.126,1.45q-.292,1.016-.672,1.976t-.869,1.916l2.559,4.681.174.318-.256.256-3.771,3.779-.257.258-.319-.174L44.474,713.9q-1.015.512-2.072.924t-2.135.719l-1.416,5.095-.1.355h-.369l-2.581,0-2.581,0h-.369l-.1-.355-1.416-5.095q-1.079-.307-2.135-.719t-2.072-.924l-4.662,2.548-.319.174-.257-.258-3.772-3.779-.255-.256.174-.318,2.559-4.681q-.483-.943-.868-1.916t-.672-1.976l-5.125-1.45-.338-.1Z" transform="translate(-12.802 -665.437)" fill="#333" fill-rule="evenodd"/>
      <path id="Path_1608" data-name="Path 1608" d="M2.06,24.891H43.94a2.06,2.06,0,0,1,0,4.119H2.06a2.06,2.06,0,1,1,0-4.119m.122-1.808a20.865,20.865,0,0,1,9.428-19q.3-.195.6-.378l1.946,16.929q2.057-18.8,2.057-18.8A1.987,1.987,0,0,1,18.19,0h9.6a1.987,1.987,0,0,1,1.975,1.831s.685,6.266,2.057,18.8L33.769,3.7q.3.183.6.377a20.864,20.864,0,0,1,9.428,19Z" transform="translate(0 -0.002)" fill="#fbbf0f" fill-rule="evenodd"/>
    </g>
  </g>
</svg>
