<svg xmlns="http://www.w3.org/2000/svg" xmlns:xlink="http://www.w3.org/1999/xlink" width="177.206" height="40.795" viewBox="0 0 177.206 40.795">
  <defs>
    <clipPath id="clip-path">
      <rect id="Rectangle_463" data-name="Rectangle 463" width="177.206" height="40.795" fill="none"/>
    </clipPath>
  </defs>
  <g id="Group_1106" data-name="Group 1106" transform="translate(0 0)">
    <g id="Group_1105" data-name="Group 1105" transform="translate(0 0)" clip-path="url(#clip-path)">
      <path id="Path_1519" data-name="Path 1519" d="M51.388,4.174q-.635-.256-1.294-.478t-1.319-.4q-.661-.181-1.331-.325T46.1,2.719q-.677-.106-1.365-.175-.338-.034-.674-.058t-.673-.04q-.337-.014-.672-.02t-.671,0L39.17,0l2.813,5.535a16.064,16.064,0,0,1,6.345.894,14.609,14.609,0,0,1,2.829,1.358,12.122,12.122,0,0,1,2.423,1.97l4.8-1q-.375-.384-.774-.747t-.815-.7q-.415-.336-.855-.652t-.893-.608q-.579-.372-1.182-.706t-1.219-.626q-.616-.293-1.255-.551" transform="translate(-17.029 0)" fill="#ce9c18"/>
      <path id="Path_1520" data-name="Path 1520" d="M14.474,16.556a7.093,7.093,0,0,1,.6-2.952,8.2,8.2,0,0,1,1.635-2.4,10.279,10.279,0,0,1,2.371-1.8A12.7,12.7,0,0,1,22,8.226L20.639,5.093q-.53.106-1.05.237t-1.033.288q-.516.157-1.019.341t-1,.4q-.64.273-1.247.584t-1.195.672q-.588.361-1.14.765t-1.081.864q-.529.462-1,.959t-.906,1.048a13.1,13.1,0,0,0-.8,1.141,12.643,12.643,0,0,0-.679,1.238q-.152.318-.284.642t-.247.66q-.114.336-.209.678t-.168.7L0,19.562Z" transform="translate(0 -2.214)" fill="#7c671d"/>
      <path id="Path_1521" data-name="Path 1521" d="M64.168,19.692A7.8,7.8,0,0,1,65,22.541a7.133,7.133,0,0,1-.367,2.955,7.974,7.974,0,0,1-1.7,2.8,10.357,10.357,0,0,1-3.137,2.272l3.664,7.21q.749-.375,1.437-.8t1.3-.895q.612-.465,1.162-.976t1.021-1.046a13.646,13.646,0,0,0,1.089-1.405,12.674,12.674,0,0,0,.847-1.454,12,12,0,0,0,.618-1.488,11.809,11.809,0,0,0,.4-1.506,11.62,11.62,0,0,0,.2-2.954,11.815,11.815,0,0,0-.17-1.419,12.462,12.462,0,0,0-.332-1.376c-.066-.221-.138-.439-.216-.656s-.161-.427-.249-.638-.181-.416-.279-.621-.2-.4-.308-.6l3.492-2.367Z" transform="translate(-25.993 -7.639)" fill="#7c671d"/>
      <path id="Path_1522" data-name="Path 1522" d="M35.725,37.428A15.937,15.937,0,0,1,26.6,36.067a13.047,13.047,0,0,1-3.471-2.386,9.683,9.683,0,0,1-2.155-3.061l-7.52,1.715A12.534,12.534,0,0,0,13.8,33.6a12.94,12.94,0,0,0,.491,1.27,13.745,13.745,0,0,0,.645,1.265q.364.634.8,1.251a16.655,16.655,0,0,0,1.253,1.545,17.837,17.837,0,0,0,1.5,1.45,19.382,19.382,0,0,0,1.734,1.332,21.283,21.283,0,0,0,1.963,1.189,22.92,22.92,0,0,0,2.151,1.01,23.569,23.569,0,0,0,2.288.8,24.331,24.331,0,0,0,2.394.568,24.837,24.837,0,0,0,2.467.326q.61.05,1.22.069t1.211.007q.6-.011,1.2-.053t1.181-.112l6.685,8.59Z" transform="translate(-5.85 -13.312)" fill="#ce9c18"/>
      <path id="Path_1523" data-name="Path 1523" d="M47.093,17.145a7.292,7.292,0,0,0-1.869-1.026,8.419,8.419,0,0,0-2.151-.5,8.222,8.222,0,0,0-2.275.1,6.839,6.839,0,0,0-2.054.716,5.1,5.1,0,0,0-1.509,1.235,3.855,3.855,0,0,0-.8,1.652,3.672,3.672,0,0,0,.135,1.94,4.806,4.806,0,0,0,1.2,1.858,6.833,6.833,0,0,0,2.054,1.366,8.337,8.337,0,0,0,2.592.661,8.074,8.074,0,0,0,2.733-.213,6.243,6.243,0,0,0,2.237-1.051A4.411,4.411,0,0,0,48.7,22.309a3.62,3.62,0,0,0,.363-1.813,4.037,4.037,0,0,0-.589-1.826,5.509,5.509,0,0,0-1.385-1.525" transform="translate(-15.808 -6.776)" fill="#fff"/>
      <path id="Path_1524" data-name="Path 1524" d="M99.088,18.335h9.758a6.366,6.366,0,0,1,4.573,1.549,5.323,5.323,0,0,1,1.626,4.035,8.375,8.375,0,0,1-.184,1.687,9.633,9.633,0,0,1-2.808,5.248,7.948,7.948,0,0,1-5.6,1.934h-4.664l-1.1,5.308H94.915Zm6.629,10.034a3.1,3.1,0,0,0,2.225-.721,3.827,3.827,0,0,0,1.028-2.041,4.8,4.8,0,0,0,.123-1.1,1.7,1.7,0,0,0-.476-1.3,2.228,2.228,0,0,0-1.549-.445h-3.13l-1.2,5.616Z" transform="translate(-41.265 -7.971)" fill="#fff"/>
      <path id="Path_1525" data-name="Path 1525" d="M130.762,41a4.424,4.424,0,0,1-1.443-3.636,10.275,10.275,0,0,1,.246-2.239,11.446,11.446,0,0,1,1.811-4.281,9.181,9.181,0,0,1,3.114-2.823,8.035,8.035,0,0,1,3.912-1,6.416,6.416,0,0,1,1.965.276,4.182,4.182,0,0,1,1.411.736l.153-.705H147.7l-3.069,14.545h-5l-.061-1.136a8.2,8.2,0,0,1-4.726,1.443A6.273,6.273,0,0,1,130.762,41m7.963-3.221a3.12,3.12,0,0,0,1.12-.66l1.105-5.156a2.482,2.482,0,0,0-1.964-.767q-2.67,0-3.529,3.958a5.77,5.77,0,0,0-.184,1.32,1.355,1.355,0,0,0,.491,1.181,2.86,2.86,0,0,0,1.627.353,4.051,4.051,0,0,0,1.335-.229" transform="translate(-56.222 -11.748)" fill="#fff"/>
      <path id="Path_1526" data-name="Path 1526" d="M164.986,27.563h5.862l.951,8.531,4.572-8.531h6.169l-8.808,14.545h-6.075Z" transform="translate(-71.729 -11.983)" fill="#fff"/>
      <path id="Path_1527" data-name="Path 1527" d="M194.43,40.737a4.92,4.92,0,0,1-1.933-4.2,8.588,8.588,0,0,1,.215-1.9,9.748,9.748,0,0,1,3.115-5.616,9.419,9.419,0,0,1,6.306-1.995,6.9,6.9,0,0,1,4.634,1.442,4.8,4.8,0,0,1,1.688,3.836,6.421,6.421,0,0,1-.153,1.474l-.552,2.546h-10.1a1.79,1.79,0,0,0,.936,1.657,7.732,7.732,0,0,0,3.329.491,15.592,15.592,0,0,0,2.532-.215,11.542,11.542,0,0,0,2.194-.552l-.737,3.467a15.8,15.8,0,0,1-6.2,1.013,8.642,8.642,0,0,1-5.278-1.443m9.022-7.549.092-.522a3.641,3.641,0,0,0,.062-.521q0-1.442-2.056-1.443a3.4,3.4,0,0,0-2.194.613,3.208,3.208,0,0,0-1.028,1.872Z" transform="translate(-83.689 -11.747)" fill="#fff"/>
      <path id="Path_1528" data-name="Path 1528" d="M222.528,18.334h5.831L230.2,31.407l7.365-13.072h6.229L232.041,38.1h-6.106Z" transform="translate(-96.746 -7.971)" fill="#fff"/>
      <path id="Path_1529" data-name="Path 1529" d="M254.567,41.371a3.822,3.822,0,0,1-1.166-3.007,7.793,7.793,0,0,1,.184-1.627l1.933-9.175h5.769l-1.841,8.715a2.307,2.307,0,0,0-.062.613q0,1.289,1.6,1.289a3.657,3.657,0,0,0,1.412-.307,4.5,4.5,0,0,0,1.258-.767l2.025-9.544h5.769l-3.069,14.545h-5.4l.062-1.1a9.836,9.836,0,0,1-5.247,1.411,4.661,4.661,0,0,1-3.222-1.044" transform="translate(-110.168 -11.983)" fill="#fff"/>
      <path id="Path_1530" data-name="Path 1530" d="M287.206,40.737a4.92,4.92,0,0,1-1.933-4.2,8.584,8.584,0,0,1,.215-1.9,9.748,9.748,0,0,1,3.115-5.616,9.419,9.419,0,0,1,6.306-1.995,6.9,6.9,0,0,1,4.634,1.442A4.8,4.8,0,0,1,301.23,32.3a6.424,6.424,0,0,1-.153,1.474l-.552,2.546h-10.1a1.79,1.79,0,0,0,.936,1.657,7.732,7.732,0,0,0,3.329.491,15.592,15.592,0,0,0,2.532-.215,11.542,11.542,0,0,0,2.194-.552l-.737,3.467a15.8,15.8,0,0,1-6.2,1.013,8.642,8.642,0,0,1-5.278-1.443m9.022-7.549.092-.522a3.639,3.639,0,0,0,.062-.521q0-1.442-2.056-1.443a3.4,3.4,0,0,0-2.194.613,3.208,3.208,0,0,0-1.028,1.872Z" transform="translate(-124.024 -11.747)" fill="#fff"/>
    </g>
  </g>
</svg>
